<svg width="1163" height="855" viewBox="0 0 1163 855" fill="none" xmlns="http://www.w3.org/2000/svg">
<path d="M717.236 490.558C717.236 510.019 712.165 526.876 702.024 541.13C692.156 555.383 677.629 566.347 658.441 574.022C639.254 581.697 615.819 585.534 588.134 585.534C568.947 585.534 550.445 583.341 532.629 578.956M710.658 453.554C706.546 442.59 699.146 432.722 688.456 423.951C678.04 415.18 663.512 406.819 644.873 398.871C626.509 390.922 603.21 382.836 574.977 374.612C545.374 365.841 518.649 356.111 494.802 345.421M433.541 308.006C416.546 294.026 403.526 277.992 394.481 259.901C385.436 241.81 380.913 221.115 380.913 197.817C380.913 174.518 385.71 153.001 395.303 133.266C404.897 113.53 418.602 96.3989 436.419 81.8715M500.97 47.3346C525.913 39.1115 553.734 35 584.434 35C629.387 35 667.487 43.6342 698.734 60.9026M770.686 127.921C787.132 155.331 795.355 184.66 795.355 215.907M716.414 215.907C716.414 193.431 711.617 173.559 702.024 156.29C692.43 138.748 677.903 125.043 658.441 115.175C638.98 105.033 614.311 99.9622 584.434 99.9622M514.538 112.708C496.173 121.205 482.468 132.717 473.423 147.245C464.651 161.772 460.266 178.355 460.266 196.994M468.078 231.531C473.56 241.673 481.92 251.13 493.158 259.901C504.67 268.672 519.198 276.758 536.74 284.159C554.557 291.56 575.8 298.686 600.469 305.539M688.456 337.609C713.125 349.395 733.408 362.689 749.306 377.491C765.478 392.018 777.402 408.601 785.077 427.24C793.026 445.605 797 466.437 797 489.735M782.199 556.931C772.331 576.666 758.215 593.524 739.85 607.503C721.485 621.482 699.42 631.309 673.654 638.984C648.163 646.385 619.656 650.085 588.134 650.085M506.315 638.573C479.727 630.898 455.469 619.386 433.541 604.036C411.887 588.686 394.481 569.773 381.324 547.297C368.441 524.546 362 498.233 362 468.355M440.941 468.355C440.941 488.913 444.916 506.593 452.865 521.394C460.814 535.922 471.641 547.982 485.346 557.576" stroke="url(#paint0_linear_109_2)" stroke-width="26.3138" stroke-linecap="round"/>
<path d="M386.375 781.922L394.953 781.172C395.359 784.609 396.297 787.438 397.766 789.656C399.266 791.844 401.578 793.625 404.703 795C407.828 796.344 411.344 797.016 415.25 797.016C418.719 797.016 421.781 796.5 424.438 795.469C427.094 794.438 429.062 793.031 430.344 791.25C431.656 789.438 432.312 787.469 432.312 785.344C432.312 783.188 431.688 781.312 430.438 779.719C429.188 778.094 427.125 776.734 424.25 775.641C422.406 774.922 418.328 773.812 412.016 772.312C405.703 770.781 401.281 769.344 398.75 768C395.469 766.281 393.016 764.156 391.391 761.625C389.797 759.062 389 756.203 389 753.047C389 749.578 389.984 746.344 391.953 743.344C393.922 740.312 396.797 738.016 400.578 736.453C404.359 734.891 408.562 734.109 413.188 734.109C418.281 734.109 422.766 734.938 426.641 736.594C430.547 738.219 433.547 740.625 435.641 743.812C437.734 747 438.859 750.609 439.016 754.641L430.297 755.297C429.828 750.953 428.234 747.672 425.516 745.453C422.828 743.234 418.844 742.125 413.562 742.125C408.062 742.125 404.047 743.141 401.516 745.172C399.016 747.172 397.766 749.594 397.766 752.438C397.766 754.906 398.656 756.938 400.438 758.531C402.188 760.125 406.75 761.766 414.125 763.453C421.531 765.109 426.609 766.562 429.359 767.812C433.359 769.656 436.312 772 438.219 774.844C440.125 777.656 441.078 780.906 441.078 784.594C441.078 788.25 440.031 791.703 437.938 794.953C435.844 798.172 432.828 800.688 428.891 802.5C424.984 804.281 420.578 805.172 415.672 805.172C409.453 805.172 404.234 804.266 400.016 802.453C395.828 800.641 392.531 797.922 390.125 794.297C387.75 790.641 386.5 786.516 386.375 781.922ZM453.781 804V735.281H462.875V763.5H498.594V735.281H507.688V804H498.594V771.609H462.875V804H453.781ZM515.328 804L541.719 735.281H551.516L579.641 804H569.281L561.266 783.188H532.531L524.984 804H515.328ZM535.156 775.781H558.453L551.281 756.75C549.094 750.969 547.469 746.219 546.406 742.5C545.531 746.906 544.297 751.281 542.703 755.625L535.156 775.781ZM586.531 804V735.281H595.625V769.359L629.75 735.281H642.078L613.25 763.125L643.344 804H631.344L606.875 769.219L595.625 780.188V804H586.531ZM651.125 804V735.281H700.812V743.391H660.219V764.438H698.234V772.5H660.219V795.891H702.406V804H651.125ZM714.969 804V735.281H738.641C743.984 735.281 748.062 735.609 750.875 736.266C754.812 737.172 758.172 738.812 760.953 741.188C764.578 744.25 767.281 748.172 769.062 752.953C770.875 757.703 771.781 763.141 771.781 769.266C771.781 774.484 771.172 779.109 769.953 783.141C768.734 787.172 767.172 790.516 765.266 793.172C763.359 795.797 761.266 797.875 758.984 799.406C756.734 800.906 754 802.047 750.781 802.828C747.594 803.609 743.922 804 739.766 804H714.969ZM724.062 795.891H738.734C743.266 795.891 746.812 795.469 749.375 794.625C751.969 793.781 754.031 792.594 755.562 791.062C757.719 788.906 759.391 786.016 760.578 782.391C761.797 778.734 762.406 774.312 762.406 769.125C762.406 761.938 761.219 756.422 758.844 752.578C756.5 748.703 753.641 746.109 750.266 744.797C747.828 743.859 743.906 743.391 738.5 743.391H724.062V795.891Z" fill="url(#paint1_linear_109_2)"/>
<defs>
<linearGradient id="paint0_linear_109_2" x1="361.36" y1="33.5381" x2="797" y2="650.451" gradientUnits="userSpaceOnUse">
<stop stop-color="#7F669D"/>
<stop offset="0.546875" stop-color="#BA94D1"/>
<stop offset="1" stop-color="#8FADED"/>
</linearGradient>
<linearGradient id="paint1_linear_109_2" x1="358.5" y1="702.5" x2="820" y2="855" gradientUnits="userSpaceOnUse">
<stop stop-color="#8FADED"/>
<stop offset="0.494792" stop-color="#BA94D1"/>
<stop offset="1" stop-color="#7F669D"/>
</linearGradient>
</defs>
</svg>
